<?xml version="1.0" encoding="UTF-8" standalone="no"?>
<svg
   xmlns:dc="http://purl.org/dc/elements/1.1/"
   xmlns:cc="http://creativecommons.org/ns#"
   xmlns:rdf="http://www.w3.org/1999/02/22-rdf-syntax-ns#"
   xmlns:svg="http://www.w3.org/2000/svg"
   xmlns="http://www.w3.org/2000/svg"
   xmlns:sodipodi="http://sodipodi.sourceforge.net/DTD/sodipodi-0.dtd"
   xmlns:inkscape="http://www.inkscape.org/namespaces/inkscape"
   viewBox="0 0 570.15399 406.08002"
   version="1.1"
   id="svg65"
   sodipodi:docname="3computers.svg"
   width="570.15399"
   height="406.08002"
   inkscape:version="0.92.3 (2405546, 2018-03-11)">
  <metadata
     id="metadata69">
    <rdf:RDF>
      <cc:Work
         rdf:about="">
        <dc:format>image/svg+xml</dc:format>
        <dc:type
           rdf:resource="http://purl.org/dc/dcmitype/StillImage" />
        <dc:title>blockdiag</dc:title>
      </cc:Work>
    </rdf:RDF>
  </metadata>
  <sodipodi:namedview
     pagecolor="#ffffff"
     bordercolor="#666666"
     borderopacity="1"
     objecttolerance="10"
     gridtolerance="10"
     guidetolerance="10"
     inkscape:pageopacity="0"
     inkscape:pageshadow="2"
     inkscape:window-width="2560"
     inkscape:window-height="1440"
     id="namedview67"
     showgrid="false"
     fit-margin-top="5"
     fit-margin-left="0"
     fit-margin-right="0"
     fit-margin-bottom="5"
     inkscape:zoom="1.6054422"
     inkscape:cx="379.0412"
     inkscape:cy="145.67171"
     inkscape:window-x="0"
     inkscape:window-y="0"
     inkscape:window-maximized="0"
     inkscape:current-layer="svg65" />
  <defs
     id="defs_block">
    <filter
       height="1.5039999"
       id="filter_blur"
       inkscape:collect="always"
       width="1.1575"
       x="-0.078749999"
       y="-0.252">
      <feGaussianBlur
         id="feGaussianBlur3780"
         inkscape:collect="always"
         stdDeviation="4.2" />
    </filter>
  </defs>
  <title
     id="title5">blockdiag</title>
  <desc
     id="desc7">
nwdiag {

  internet [shape = cloud];

  internet -- Gibson [address = &quot;my.awesome.dns.com&quot;]

  network private {
      address = &quot;10.1.1.0/24&quot;;

      Gibson    [address = &quot;10.1.1.1&quot;];
      Hackbardt [address = &quot;10.1.1.2&quot;];
      HAL       [address = &quot;10.1.1.3&quot;];
  }

}
</desc>
  <path
     d="m 115.929,79 a 16,8 0 0 1 16,-8 20,7.5 0 0 1 40,0 16,8 0 0 1 16,8 16,8 0 0 1 0,16 16,20 0 0 1 -24,0 16,20 0 0 1 -24,0 16,20 0 0 1 -24,0 16,8 0 0 1 0,-16"
     style="opacity:0.7;fill:#000000;fill-opacity:1;stroke:#000000;filter:url(#filter_blur)"
     id="path9"
     inkscape:connector-curvature="0" />
  <rect
     height="40"
     style="opacity:0.7;fill:#000000;fill-opacity:1;stroke:#000000;filter:url(#filter_blur)"
     width="104"
     x="99.929001"
     y="207"
     id="rect11" />
  <rect
     height="40"
     style="opacity:0.7;fill:#000000;fill-opacity:1;stroke:#000000;filter:url(#filter_blur)"
     width="104"
     x="251.929"
     y="351"
     id="rect13" />
  <rect
     height="40"
     style="opacity:0.7;fill:#000000;fill-opacity:1;stroke:#000000;filter:url(#filter_blur)"
     width="104"
     x="403.92902"
     y="351"
     id="rect15" />
  <path
     d="M 75.929004,292 H 531.929 a 2,4 0 0 1 0,8 H 75.929004 a 2,4 0 0 1 0,-8"
     style="fill:#000000;filter:url(#filter_blur)"
     id="path17"
     inkscape:connector-curvature="0" />
  <path
     d="M 72.929004,289 H 528.929 a 2,4 0 0 1 0,8 H 72.929004 a 2,4 0 0 1 0,-8"
     id="path19"
     inkscape:connector-curvature="0"
     style="fill:#b9cbe4;stroke:#000000" />
  <path
     d="m 528.929,297 a 2,4 0 0 1 0,-8"
     id="path21"
     inkscape:connector-curvature="0"
     style="fill:none;stroke:#000000" />
  <path
     d="M 72.929004,289 H 528.929"
     id="path23"
     inkscape:connector-curvature="0"
     style="fill:none;stroke:none" />
  <text
     font-size="11"
     font-style="normal"
     font-weight="normal"
     textLength="42"
     x="99"
     y="391"
     id="text25"
     lengthAdjust="spacing"
     style="font-style:normal;font-weight:normal;font-size:11px;font-family:sans-serif;text-anchor:middle;fill:#000000"
     transform="translate(-55.070996,-99)">private</text>
  <text
     font-size="11"
     font-style="normal"
     font-weight="normal"
     textLength="66"
     x="87"
     y="404"
     id="text27"
     lengthAdjust="spacing"
     style="font-style:normal;font-weight:normal;font-size:11px;font-family:sans-serif;text-anchor:middle;fill:#000000"
     transform="translate(-55.070996,-99)">10.1.1.0/24</text>
  <path
     d="M 148.929,5 V 57"
     id="path29"
     inkscape:connector-curvature="0"
     style="fill:none;stroke:#000000" />
  <path
     d="m 148.929,97 v 52"
     id="path31"
     inkscape:connector-curvature="0"
     style="fill:none;stroke:#000000" />
  <path
     d="m 112.929,73 a 16,8 0 0 1 16,-8 20,7.5 0 0 1 40,0 16,8 0 0 1 16,8 16,8 0 0 1 0,16 16,20 0 0 1 -24,0 16,20 0 0 1 -24,0 16,20 0 0 1 -24,0 16,8 0 0 1 0,-16"
     id="path33"
     inkscape:connector-curvature="0"
     style="fill:#ffffff;stroke:#000000" />
  <text
     font-size="11"
     font-style="normal"
     font-weight="normal"
     textLength="48"
     x="204"
     y="182"
     id="text35"
     lengthAdjust="spacing"
     style="font-style:normal;font-weight:normal;font-size:11px;font-family:sans-serif;text-anchor:middle;fill:#000000"
     transform="translate(-55.070996,-99)">internet</text>
  <path
     d="m 148.929,149 v 52"
     id="path37"
     inkscape:connector-curvature="0"
     style="fill:none;stroke:#000000" />
  <text
     font-size="11"
     font-style="normal"
     font-weight="normal"
     textLength="108"
     x="270"
     y="280"
     id="text39"
     lengthAdjust="spacing"
     style="font-style:normal;font-weight:normal;font-size:11px;font-family:sans-serif;text-anchor:middle;fill:#000000"
     transform="translate(-55.070996,-99)">my.awesome.dns.com</text>
  <path
     d="m 148.929,241 v 48"
     id="path41"
     inkscape:connector-curvature="0"
     style="fill:none;stroke:#000000" />
  <text
     font-size="11"
     font-style="normal"
     font-weight="normal"
     textLength="48"
     x="240"
     y="368"
     id="text43"
     lengthAdjust="spacing"
     style="font-style:normal;font-weight:normal;font-size:11px;font-family:sans-serif;text-anchor:middle;fill:#000000"
     transform="translate(-55.070996,-99)">10.1.1.1</text>
  <rect
     height="40"
     width="104"
     x="96.929001"
     y="201"
     id="rect45"
     style="fill:#ffffff;stroke:#000000" />
  <text
     font-size="11"
     font-style="normal"
     font-weight="normal"
     textLength="36"
     x="204"
     y="326"
     id="text47"
     lengthAdjust="spacing"
     style="font-style:normal;font-weight:normal;font-size:11px;font-family:sans-serif;text-anchor:middle;fill:#000000"
     transform="translate(-55.070996,-99)">Gibson</text>
  <path
     d="m 300.929,297 v 48"
     id="path49"
     inkscape:connector-curvature="0"
     style="fill:none;stroke:#000000" />
  <text
     font-size="11"
     font-style="normal"
     font-weight="normal"
     textLength="48"
     x="392"
     y="424"
     id="text51"
     lengthAdjust="spacing"
     style="font-style:normal;font-weight:normal;font-size:11px;font-family:sans-serif;text-anchor:middle;fill:#000000"
     transform="translate(-55.070996,-99)">10.1.1.2</text>
  <rect
     height="40"
     width="104"
     x="248.929"
     y="345"
     id="rect53"
     style="fill:#ffffff;stroke:#000000" />
  <text
     font-size="11"
     font-style="normal"
     font-weight="normal"
     textLength="54"
     x="356"
     y="470"
     id="text55"
     lengthAdjust="spacing"
     style="font-style:normal;font-weight:normal;font-size:11px;font-family:sans-serif;text-anchor:middle;fill:#000000"
     transform="translate(-55.070996,-99)">Hackbardt</text>
  <path
     d="m 452.929,297 v 48"
     id="path57"
     inkscape:connector-curvature="0"
     style="fill:none;stroke:#000000" />
  <text
     font-size="11"
     font-style="normal"
     font-weight="normal"
     textLength="48"
     x="544"
     y="424"
     id="text59"
     lengthAdjust="spacing"
     style="font-style:normal;font-weight:normal;font-size:11px;font-family:sans-serif;text-anchor:middle;fill:#000000"
     transform="translate(-55.070996,-99)">10.1.1.3</text>
  <rect
     height="40"
     width="104"
     x="400.92902"
     y="345"
     id="rect61"
     style="fill:#ffffff;stroke:#000000" />
  <text
     font-size="11"
     font-style="normal"
     font-weight="normal"
     textLength="18"
     x="508"
     y="470"
     id="text63"
     lengthAdjust="spacing"
     style="font-style:normal;font-weight:normal;font-size:11px;font-family:sans-serif;text-anchor:middle;fill:#000000"
     transform="translate(-55.070996,-99)">HAL</text>
</svg>
